<svg id="visual" viewBox="0 0 1440 320" width="1440" height="320" xmlns="http://www.w3.org/2000/svg" xmlns:xlink="http://www.w3.org/1999/xlink" version="1.1"><rect x="0" y="0" width="1440" height="320" fill="#2563EB"></rect><defs><linearGradient id="grad1_0" x1="77.8%" y1="0%" x2="100%" y2="100%"><stop offset="-40%" stop-color="#14b8a6" stop-opacity="1"></stop><stop offset="140%" stop-color="#14b8a6" stop-opacity="1"></stop></linearGradient></defs><defs><linearGradient id="grad1_1" x1="77.8%" y1="0%" x2="100%" y2="100%"><stop offset="-40%" stop-color="#14b8a6" stop-opacity="1"></stop><stop offset="140%" stop-color="#00a7cd" stop-opacity="1"></stop></linearGradient></defs><defs><linearGradient id="grad1_2" x1="77.8%" y1="0%" x2="100%" y2="100%"><stop offset="-40%" stop-color="#008ef0" stop-opacity="1"></stop><stop offset="140%" stop-color="#00a7cd" stop-opacity="1"></stop></linearGradient></defs><defs><linearGradient id="grad1_3" x1="77.8%" y1="0%" x2="100%" y2="100%"><stop offset="-40%" stop-color="#008ef0" stop-opacity="1"></stop><stop offset="140%" stop-color="#2563eb" stop-opacity="1"></stop></linearGradient></defs><defs><linearGradient id="grad2_0" x1="0%" y1="0%" x2="22.2%" y2="100%"><stop offset="-40%" stop-color="#14b8a6" stop-opacity="1"></stop><stop offset="140%" stop-color="#14b8a6" stop-opacity="1"></stop></linearGradient></defs><defs><linearGradient id="grad2_1" x1="0%" y1="0%" x2="22.2%" y2="100%"><stop offset="-40%" stop-color="#00a7cd" stop-opacity="1"></stop><stop offset="140%" stop-color="#14b8a6" stop-opacity="1"></stop></linearGradient></defs><defs><linearGradient id="grad2_2" x1="0%" y1="0%" x2="22.2%" y2="100%"><stop offset="-40%" stop-color="#00a7cd" stop-opacity="1"></stop><stop offset="140%" stop-color="#008ef0" stop-opacity="1"></stop></linearGradient></defs><defs><linearGradient id="grad2_3" x1="0%" y1="0%" x2="22.2%" y2="100%"><stop offset="-40%" stop-color="#2563eb" stop-opacity="1"></stop><stop offset="140%" stop-color="#008ef0" stop-opacity="1"></stop></linearGradient></defs><g transform="translate(1440, 0)"><path d="M0 320C-38.7 301.5 -77.5 283.1 -108.7 262.4C-139.9 241.7 -163.6 218.7 -196.6 196.6C-229.6 174.4 -271.9 153.2 -291 120.5C-310.1 87.9 -306.1 44 -302 0L0 0Z" fill="#007bf5"></path><path d="M0 240C-29.1 226.2 -58.1 212.3 -81.5 196.8C-104.9 181.3 -122.7 164 -147.4 147.4C-172.2 130.8 -203.9 114.9 -218.3 90.4C-232.6 65.9 -229.6 33 -226.5 0L0 0Z" fill="#009ce2"></path><path d="M0 160C-19.4 150.8 -38.7 141.5 -54.3 131.2C-69.9 120.8 -81.8 109.4 -98.3 98.3C-114.8 87.2 -135.9 76.6 -145.5 60.3C-155.1 44 -153 22 -151 0L0 0Z" fill="#00b0b8"></path><path d="M0 80C-9.7 75.4 -19.4 70.8 -27.2 65.6C-35 60.4 -40.9 54.7 -49.1 49.1C-57.4 43.6 -68 38.3 -72.8 30.1C-77.5 22 -76.5 11 -75.5 0L0 0Z" fill="#14b8a6"></path></g><g transform="translate(0, 320)"><path d="M0 -276C31.2 -261.8 62.5 -247.7 98.7 -238.4C135 -229.1 176.3 -224.7 203.6 -203.6C231 -182.6 244.4 -145 261.5 -108.3C278.5 -71.6 299.3 -35.8 320 0L0 0Z" fill="#007bf5"></path><path d="M0 -207C23.4 -196.4 46.8 -185.7 74 -178.8C101.2 -171.8 132.2 -168.5 152.7 -152.7C173.2 -137 183.3 -108.8 196.1 -81.2C208.9 -53.7 224.4 -26.8 240 0L0 0Z" fill="#009ce2"></path><path d="M0 -138C15.6 -130.9 31.2 -123.8 49.4 -119.2C67.5 -114.5 88.1 -112.3 101.8 -101.8C115.5 -91.3 122.2 -72.5 130.7 -54.1C139.3 -35.8 149.6 -17.9 160 0L0 0Z" fill="#00b0b8"></path><path d="M0 -69C7.8 -65.5 15.6 -61.9 24.7 -59.6C33.7 -57.3 44.1 -56.2 50.9 -50.9C57.7 -45.7 61.1 -36.3 65.4 -27.1C69.6 -17.9 74.8 -8.9 80 0L0 0Z" fill="#14b8a6"></path></g></svg>